<?xml version="1.0" encoding="utf-8"?>
<!-- Generator: Adobe Illustrator 21.0.0, SVG Export Plug-In . SVG Version: 6.00 Build 0)  -->
<svg version="1.1" id="Layer_1" xmlns="http://www.w3.org/2000/svg" xmlns:xlink="http://www.w3.org/1999/xlink" x="0px" y="0px"
	 viewBox="0 0 512 512" style="enable-background:new 0 0 512 512;" xml:space="preserve">
<style type="text/css">
	.st0{fill:#DF614D;}
	.st1{fill:#E47F47;}
	.st2{fill:#F2CC56;}
	.st3{fill:#45B09D;}
	.st4{fill:#354C5E;}
	.st5{display:none;}
	.st6{display:inline;fill:#BDDFF4;}
	.st7{display:inline;fill:#ADC9E2;}
	.st8{display:inline;fill:#58E8CD;}
	.st9{display:inline;fill:#60EFD4;}
	.st10{display:inline;fill:#7DFFE6;}
	.st11{display:inline;fill:#4E7693;}
	.st12{display:inline;fill:#38627C;}
	.st13{display:inline;fill:#354C5E;}
	.st14{display:inline;fill:#24343F;}
	.st15{display:inline;fill:#F2CC56;}
	.st16{display:inline;fill:#C4A449;}
	.st17{display:inline;fill:#E47F47;}
	.st18{display:inline;fill:#DF614D;}
	.st19{display:inline;fill:#C16A3E;}
	.st20{display:inline;}
	.st21{fill:#FD9E28;}
	.st22{display:inline;fill:#FFFFFF;}
	.st23{fill:#E2E4ED;}
	.st24{fill:#608BA8;}
	.st25{fill:#50DD5A;}
	.st26{fill:#FE8700;}
	.st27{fill:#F43B3B;}
	.st28{fill:#FFFFFF;}
	.st29{fill:#6D7486;}
	.st30{fill:#9FA9B7;}
</style>
<rect x="-454.9" y="14.5" class="st0" width="45" height="274.5"/>
<rect x="-399.3" y="14.5" class="st1" width="45" height="274.5"/>
<rect x="-347.3" y="14.5" class="st2" width="45" height="274.5"/>
<rect x="-291.7" y="14.5" class="st3" width="45" height="274.5"/>
<rect x="-240.6" y="14.5" class="st4" width="45" height="274.5"/>
<circle class="st0" cx="256" cy="256" r="237"/>
<circle class="st3" cx="150.5" cy="151.7" r="139.2"/>
<circle class="st2" cx="392.2" cy="397.9" r="73"/>
<g class="st5">
	<path class="st6" d="M278.9,321.7h-45.8c0,0-0.4,31.8-16.1,51.7c-3.3,4.2-0.2,10.4,5.1,10.4h67.7c5.4,0,8.4-6.2,5.1-10.4
		C279.3,353.6,278.9,321.7,278.9,321.7z"/>
	<path class="st7" d="M289.8,383.8h-16.5c5.4,0,8.4-6.2,5.1-10.4c-15.7-19.8-16.1-51.7-16.1-51.7h16.5c0,0,0.4,31.8,16.1,51.7
		C298.3,377.6,295.2,383.8,289.8,383.8z"/>
	<path class="st8" d="M412.6,124.3v203c0,3.6-2.9,6.4-6.4,6.4H105.8c-3.6,0-6.4-2.9-6.4-6.4v-203c0-5.3,4.3-9.6,9.6-9.6h293.9
		C408.3,114.6,412.6,119,412.6,124.3z"/>
	<path class="st9" d="M126.5,114.6h259v188.2h-259V114.6z"/>
	<path class="st10" d="M412.6,124.3v203c0,3.6-2.9,6.4-6.4,6.4h-20.3c3.6,0,6.4-2.9,6.4-6.4v-203c0-5.3-4.3-9.6-9.6-9.6h20.3
		C408.3,114.6,412.6,119,412.6,124.3z"/>
	<path class="st11" d="M412.6,295.3v32c0,3.6-2.9,6.4-6.4,6.4H105.8c-3.6,0-6.4-2.9-6.4-6.4v-32H412.6z"/>
	<path class="st12" d="M412.6,295.3v32c0,3.6-2.9,6.4-6.4,6.4h-20.3c3.6,0,6.4-2.9,6.4-6.4v-32H412.6z"/>
	<path class="st13" d="M134.1,94.2v201h243.7v-201c0-3.5-2.8-6.3-6.3-6.3H140.5C137,87.9,134.1,90.7,134.1,94.2z"/>
	<path class="st14" d="M363.3,87.9v207.4h14.6v-201c0-3.5-2.8-6.3-6.3-6.3H363.3z"/>
	<path class="st15" d="M134.1,154.5h243.7v140.7H134.1V154.5z"/>
	<path class="st16" d="M363.3,154.5h14.6v140.7h-14.6V154.5z"/>
	<path class="st17" d="M134.1,94.2v25.3h243.7V94.2c0-3.5-2.8-6.3-6.3-6.3H140.5C137,87.9,134.1,90.7,134.1,94.2z"/>
	<path class="st18" d="M134.1,94.2v25.3h71.5V87.9h-65.2C137,87.9,134.1,90.7,134.1,94.2z"/>
	<path class="st19" d="M363.3,87.9v31.7h14.6V94.2c0-3.5-2.8-6.3-6.3-6.3H363.3z"/>
	<g class="st20">
		<path class="st21" d="M235.2,142.9h-77c-2.6,0-4.7-2.1-4.7-4.7s2.1-4.7,4.7-4.7h77c2.6,0,4.7,2.1,4.7,4.7S237.8,142.9,235.2,142.9
			z"/>
		<path class="st21" d="M279.2,142.9h-10.8c-2.6,0-4.7-2.1-4.7-4.7s2.1-4.7,4.7-4.7h10.8c2.6,0,4.7,2.1,4.7,4.7
			S281.8,142.9,279.2,142.9z"/>
		<path class="st21" d="M304.1,142.9h-10.8c-2.6,0-4.7-2.1-4.7-4.7s2.1-4.7,4.7-4.7h10.8c2.6,0,4.7,2.1,4.7,4.7
			S306.7,142.9,304.1,142.9z"/>
		<path class="st21" d="M328.9,142.9h-10.8c-2.6,0-4.7-2.1-4.7-4.7s2.1-4.7,4.7-4.7h10.8c2.6,0,4.7,2.1,4.7,4.7
			S331.5,142.9,328.9,142.9z"/>
		<path class="st21" d="M353.8,142.9H343c-2.6,0-4.7-2.1-4.7-4.7s2.1-4.7,4.7-4.7h10.8c2.6,0,4.7,2.1,4.7,4.7
			S356.4,142.9,353.8,142.9z"/>
	</g>
	<path class="st22" d="M156.9,108.7C156.9,108.7,156.9,108.7,156.9,108.7c-2.6,0-4.8-2.1-4.8-4.8c0-2.6,2.1-4.7,4.7-4.7h0h0.1
		c2.6,0,4.7,2.1,4.7,4.8C161.6,106.6,159.5,108.7,156.9,108.7z"/>
	<path class="st22" d="M170.4,108.7c-2.6,0-4.8-2.1-4.8-4.7c0-2.6,2.1-4.7,4.7-4.7h0.1c2.6,0,4.7,2.1,4.7,4.7
		C175.1,106.6,173,108.7,170.4,108.7z"/>
	<path class="st22" d="M183.9,108.7C183.9,108.7,183.9,108.7,183.9,108.7c-2.6,0-4.8-2.1-4.8-4.8c0-2.6,2.1-4.7,4.7-4.7h0h0.1
		c2.6,0,4.7,2.1,4.7,4.8C188.6,106.7,186.5,108.7,183.9,108.7z"/>
	<path class="st12" d="M261.7,319.2h-11.4c-2.6,0-4.7-2.1-4.7-4.7c0-2.6,2.1-4.7,4.7-4.7h11.4c2.6,0,4.7,2.1,4.7,4.7
		S264.3,319.2,261.7,319.2z"/>
	<path class="st17" d="M220.1,181.6h-61.9c-2.6,0-4.7-2.1-4.7-4.7c0-2.6,2.1-4.7,4.7-4.7h61.9c2.6,0,4.7,2.1,4.7,4.7
		C224.9,179.5,222.7,181.6,220.1,181.6z"/>
	<path class="st17" d="M220.1,198.1h-61.9c-2.6,0-4.7-2.1-4.7-4.7c0-2.6,2.1-4.7,4.7-4.7h61.9c2.6,0,4.7,2.1,4.7,4.7
		S222.7,198.1,220.1,198.1z"/>
	<path class="st17" d="M220.1,214.6h-61.9c-2.6,0-4.7-2.1-4.7-4.7s2.1-4.7,4.7-4.7h61.9c2.6,0,4.7,2.1,4.7,4.7
		S222.7,214.6,220.1,214.6z"/>
	<path class="st17" d="M220.1,231.1h-61.9c-2.6,0-4.7-2.1-4.7-4.7c0-2.6,2.1-4.7,4.7-4.7h61.9c2.6,0,4.7,2.1,4.7,4.7
		C224.9,228.9,222.7,231.1,220.1,231.1z"/>
	<path class="st22" d="M343.2,226.3h-97.7c-2.9,0-5.2-2.3-5.2-5.2v-39.1c0-2.9,2.3-5.2,5.2-5.2h97.7c2.9,0,5.2,2.3,5.2,5.2v39.1
		C348.4,224,346,226.3,343.2,226.3z"/>
	<path class="st18" d="M348.4,221.1c0,2.9-2.3,5.2-5.2,5.2H337l-96.8-44.3v0c0-2.9,2.3-5.2,5.2-5.2h6.2L348.4,221.1z"/>
	<path class="st17" d="M348.4,247.5h-30.2c-2.6,0-4.7-2.1-4.7-4.7c0-2.6,2.1-4.7,4.7-4.7h30.2c2.6,0,4.7,2.1,4.7,4.7
		C353.1,245.4,351,247.5,348.4,247.5z"/>
	<path class="st17" d="M348.4,264.5H158.2c-2.6,0-4.7-2.1-4.7-4.7c0-2.6,2.1-4.7,4.7-4.7h190.1c2.6,0,4.7,2.1,4.7,4.7
		C353.1,262.4,351,264.5,348.4,264.5z"/>
	<path class="st17" d="M348.4,279H158.2c-2.6,0-4.7-2.1-4.7-4.7s2.1-4.7,4.7-4.7h190.1c2.6,0,4.7,2.1,4.7,4.7S351,279,348.4,279z"/>
</g>
<g>
	<path class="st4" d="M404.7,111.5v41.7H107.3v-41.7c0-7.5,6.1-13.5,13.5-13.5c0,0,0,0,0,0h270.4C398.7,98,404.7,104,404.7,111.5
		C404.7,111.5,404.7,111.5,404.7,111.5z"/>
	<path class="st23" d="M107.3,153.2v182.4c0,7.5,6.1,13.5,13.5,13.5h270.4c7.5,0,13.5-6.1,13.5-13.5V153.2L107.3,153.2z"/>
	<path class="st24" d="M139.6,98h-18.7c-7.5,0-13.5,6-13.5,13.5c0,0,0,0,0,0v41.7H126v-41.7C126,104.1,132.1,98,139.6,98
		C139.6,98,139.6,98,139.6,98z"/>
	<path class="st23" d="M126,335.6V153.2h-18.7v182.4c0,7.5,6.1,13.5,13.5,13.5h18.7C132.1,349.1,126,343.1,126,335.6L126,335.6z"/>
	<path class="st25" d="M210.7,114.5c5.9,0,10.6,4.8,10.6,10.6s-4.8,10.6-10.6,10.6s-10.6-4.8-10.6-10.6c0,0,0,0,0,0
		C200.1,119.3,204.8,114.5,210.7,114.5z"/>
	<path class="st26" d="M172.8,114.5c5.9,0,10.6,4.8,10.6,10.6s-4.8,10.6-10.6,10.6c-5.9,0-10.6-4.8-10.6-10.6c0,0,0,0,0,0
		C162.2,119.3,166.9,114.5,172.8,114.5z"/>
	<path class="st27" d="M134.9,114.5c5.9,0,10.6,4.8,10.6,10.6s-4.8,10.6-10.6,10.6c-5.9,0-10.6-4.8-10.6-10.6c0,0,0,0,0,0
		C124.3,119.3,129,114.5,134.9,114.5z"/>
	<path class="st4" d="M366.2,328c-5.4,0-9.8,4.4-9.8,9.8c0,0,0,0,0,0V332c0-5.4-4.4-9.8-9.8-9.8c-4.7,0-8.8,3.4-9.6,8.1v-4.5
		c0-5.2-4.2-9.3-9.3-9.3c-5.2,0-9.3,4.2-9.3,9.3c0,0,0,0,0,0h-0.2v-62c0-6-4.8-10.8-10.8-10.8s-10.8,4.8-10.8,10.8v86.8l-7.1-10.3
		c-5.3-7.7-14.1-12.3-23.4-12.3c-2.1,0-3.8,1.7-3.8,3.8c0,0.5,0.1,1.1,0.3,1.5l0.6,1.4c3,6.7,5.4,13.7,7.2,20.8l8,31.3
		c2.9,9.8,12,16.5,22.2,16.5h52.3c12.8,0,23.2-10.4,23.2-23.2c0,0,0,0,0,0v-42.3C376.1,332.4,371.7,328,366.2,328L366.2,328z"/>
	<path class="st28" d="M362.4,322.6c-5.4,0-9.8,4.4-9.8,9.8c0,0,0,0,0,0v-5.9c0-5.4-4.4-9.8-9.8-9.8c-4.7,0-8.8,3.4-9.6,8.1v-4.5
		c0-5.2-4.2-9.3-9.3-9.3c-5.2,0-9.3,4.2-9.3,9.3c0,0,0,0,0,0h-0.2v-62c0-6-4.8-10.8-10.8-10.8s-10.8,4.8-10.8,10.8v86.8l-7.1-10.3
		c-5.3-7.7-14.1-12.3-23.4-12.3c-2.1,0-3.8,1.7-3.8,3.8c0,0.5,0.1,1.1,0.3,1.5l0.6,1.4c3,6.7,5.4,13.7,7.2,20.8l8,31.3
		c2.9,9.8,12,16.5,22.2,16.5h52.3c12.8,0,23.2-10.4,23.2-23.2c0,0,0,0,0,0v-42.3C372.3,327,367.9,322.6,362.4,322.6L362.4,322.6z"/>
	<path class="st29" d="M182,233.7h-35.9c-3,0-5.5-2.4-5.5-5.5v-35.8c0-3,2.4-5.5,5.5-5.5H164c2.1,0,3.7,1.7,3.7,3.7
		s-1.7,3.7-3.7,3.7h-15.9v31.8h31.8v-10.1c0-2.1,1.7-3.7,3.7-3.7c2.1,0,3.7,1.7,3.7,3.7v12.1C187.4,231.2,185,233.7,182,233.7
		L182,233.7z"/>
	<path class="st0" d="M167.6,214.9c-1.4,0-2.7-0.5-3.8-1.4l-6.9-5.6c-1.6-1.3-1.9-3.7-0.6-5.3c1.3-1.6,3.7-1.9,5.3-0.6l0,0l5.7,4.6
		l17.9-21.5c1.3-1.6,3.7-1.8,5.3-0.5s1.8,3.7,0.5,5.3l-19.1,23l-0.2,0.1C170.6,214.3,169.1,214.9,167.6,214.9L167.6,214.9z"/>
	<path class="st30" d="M372.3,197H226c-2.1,0-3.7-1.7-3.7-3.7s1.7-3.7,3.7-3.7h146.3c2.1,0,3.7,1.7,3.7,3.7S374.4,197,372.3,197z"/>
	<path class="st30" d="M372.3,228.1H226c-2.1,0-3.7-1.7-3.7-3.7s1.7-3.7,3.7-3.7h146.3c2.1,0,3.7,1.7,3.7,3.7
		S374.4,228.1,372.3,228.1z"/>
	<path class="st29" d="M182,313.1h-35.9c-3,0-5.5-2.4-5.5-5.5v-35.8c0-3,2.4-5.5,5.5-5.5H164c2.1,0,3.7,1.7,3.7,3.7
		c0,2.1-1.7,3.7-3.7,3.7h-15.9v31.8h31.8v-10.1c0-2.1,1.7-3.7,3.7-3.7c2.1,0,3.7,1.7,3.7,3.7v12.1C187.4,310.7,185,313.1,182,313.1z
		"/>
	<path class="st0" d="M167.6,294.4c-1.4,0-2.7-0.5-3.8-1.4l-6.9-5.6c-1.6-1.3-1.9-3.7-0.6-5.3c1.3-1.6,3.7-1.9,5.3-0.6l0,0l5.7,4.6
		l17.9-21.5c1.3-1.6,3.7-1.8,5.3-0.5c1.6,1.3,1.8,3.7,0.5,5.3l-19.1,23l-0.2,0.1C170.6,293.8,169.1,294.4,167.6,294.4L167.6,294.4z"
		/>
	<g>
		<path class="st30" d="M372.3,276.5h-30.5c-2.1,0-3.7-1.7-3.7-3.7c0-2.1,1.7-3.7,3.7-3.7h30.5c2.1,0,3.7,1.7,3.7,3.7
			C376,274.8,374.4,276.5,372.3,276.5L372.3,276.5z"/>
		<path class="st30" d="M273.5,276.5H226c-2.1,0-3.7-1.7-3.7-3.7c0-2.1,1.7-3.7,3.7-3.7h47.5c2.1,0,3.7,1.7,3.7,3.7
			C277.3,274.8,275.6,276.5,273.5,276.5z"/>
		<path class="st30" d="M238.8,307.6H226c-2.1,0-3.7-1.7-3.7-3.7s1.7-3.7,3.7-3.7h12.8c2.1,0,3.7,1.7,3.7,3.7
			S240.9,307.6,238.8,307.6z"/>
		<path class="st30" d="M388.4,128.2H266.6c-2.1,0-3.7-1.7-3.7-3.7s1.7-3.7,3.7-3.7h121.8c2.1,0,3.7,1.7,3.7,3.7
			S390.5,128.2,388.4,128.2L388.4,128.2L388.4,128.2z"/>
	</g>
</g>
</svg>
